<svg width="15" height="8" viewBox="0 0 15 8" fill="none" xmlns="http://www.w3.org/2000/svg">
<path d="M14.3635 5.58528C14.2992 5.62192 14.2284 5.64552 14.155 5.65475C14.0816 5.66397 14.0072 5.65864 13.9358 5.63905C13.8645 5.61945 13.7978 5.58599 13.7394 5.54057C13.681 5.49515 13.6322 5.43866 13.5957 5.37434L12.2597 3.03997C11.4831 3.56511 10.6263 3.96073 9.72287 4.21137L10.1356 6.68778C10.1478 6.76068 10.1455 6.83527 10.1288 6.90728C10.1121 6.97929 10.0814 7.04731 10.0385 7.10745C9.99551 7.16759 9.94111 7.21868 9.87839 7.25778C9.81567 7.29689 9.74586 7.32325 9.67294 7.33536C9.64295 7.34026 9.61263 7.34285 9.58224 7.34309C9.44917 7.34289 9.32048 7.29552 9.21904 7.2094C9.11759 7.12327 9.04997 7.00398 9.02818 6.8727L8.62247 4.44129C7.76691 4.56035 6.89898 4.56035 6.04341 4.44129L5.63771 6.8727C5.61588 7.00421 5.54805 7.1237 5.44631 7.20985C5.34458 7.296 5.21555 7.34322 5.08224 7.34309C5.05115 7.34296 5.02011 7.34037 4.98943 7.33536C4.91651 7.32325 4.8467 7.29689 4.78398 7.25778C4.72126 7.21868 4.66686 7.16759 4.62389 7.10745C4.58092 7.04731 4.55023 6.97929 4.53357 6.90728C4.5169 6.83527 4.51459 6.76068 4.52677 6.68778L4.94161 4.21137C4.03854 3.95993 3.18226 3.56361 2.40615 3.03786L1.07443 5.37434C1.03749 5.4387 0.988244 5.49515 0.929492 5.54048C0.870741 5.5858 0.803637 5.61911 0.732013 5.6385C0.660388 5.65789 0.585646 5.66299 0.512053 5.65349C0.438459 5.644 0.367457 5.6201 0.303099 5.58317C0.238741 5.54624 0.182288 5.49699 0.136963 5.43823C0.0916383 5.37948 0.0583292 5.31238 0.0389377 5.24076C0.0195462 5.16913 0.014452 5.09439 0.0239461 5.02079C0.0334402 4.9472 0.0573366 4.8762 0.0942708 4.81184L1.50052 2.3509C1.00658 1.92416 0.552369 1.45348 0.14349 0.944653C0.0924982 0.88772 0.0536441 0.820993 0.029299 0.748544C0.00495393 0.676096 -0.00437149 0.599445 0.0018922 0.523273C0.00815589 0.4471 0.0298773 0.373003 0.0657303 0.305505C0.101583 0.238006 0.150816 0.178521 0.210423 0.130683C0.270029 0.0828444 0.33876 0.0476551 0.412419 0.0272629C0.486078 0.00687061 0.56312 0.00170311 0.638843 0.0120762C0.714565 0.0224493 0.78738 0.0481453 0.852841 0.0875954C0.918303 0.127046 0.975038 0.179422 1.01958 0.241528C2.18677 1.68575 4.22865 3.40559 7.33224 3.40559C10.4358 3.40559 12.4777 1.68364 13.6449 0.241528C13.6889 0.178151 13.7455 0.124513 13.8112 0.0839524C13.8769 0.0433916 13.9502 0.0167753 14.0265 0.0057596C14.1029 -0.0052561 14.1808 -0.00043562 14.2552 0.0199211C14.3296 0.0402779 14.3991 0.0757356 14.4593 0.124088C14.5194 0.17244 14.569 0.232653 14.6048 0.30098C14.6407 0.369307 14.6622 0.444286 14.6678 0.521254C14.6735 0.598221 14.6632 0.67553 14.6377 0.74837C14.6122 0.82121 14.572 0.888024 14.5196 0.944653C14.1107 1.45348 13.6565 1.92416 13.1626 2.3509L14.5688 4.81184C14.6066 4.87599 14.6312 4.947 14.6413 5.02074C14.6514 5.09448 14.6468 5.1695 14.6277 5.24144C14.6086 5.31338 14.5754 5.38082 14.5301 5.43984C14.4847 5.49886 14.4281 5.5483 14.3635 5.58528Z" fill="black"/>
</svg>
