<svg width="12" height="13" viewBox="0 0 12 13" fill="none" xmlns="http://www.w3.org/2000/svg">
<g filter="url(#filter0_f_220_1097)">
<path d="M4.69101 0.469971C3.71614 1.54013 2.88329 2.73795 2.22295 4.03338C1.09004 6.24884 0.469727 8.94223 0.469727 11.582C0.469727 11.6192 0.472795 11.6556 0.473043 11.6927C0.974771 12.6579 7.40351 12.4731 7.72754 11.6927C7.72713 11.6563 7.72304 11.6208 7.72304 11.5843C7.72304 10.5016 7.90536 9.70358 8.23767 8.72473C8.64763 7.51733 9.28953 6.40549 10.1103 5.44754C10.2964 5.20921 10.7927 4.69684 10.9375 4.38951C10.9927 4.27245 10.8374 4.20674 10.8287 4.16554C10.819 4.11946 10.6108 4.15652 10.5641 4.12219C10.416 4.01319 10.1227 3.95628 9.94462 3.90568C9.56396 3.79754 8.9331 3.55907 8.5827 3.31186C7.47509 2.53045 5.74658 1.59706 4.69101 0.469971Z" fill="url(#paint0_radial_220_1097)"/>
</g>
<defs>
<filter id="filter0_f_220_1097" x="-0.00035277" y="-0.000108629" width="11.4197" height="12.8193" filterUnits="userSpaceOnUse" color-interpolation-filters="sRGB">
<feFlood flood-opacity="0" result="BackgroundImageFix"/>
<feBlend mode="normal" in="SourceGraphic" in2="BackgroundImageFix" result="shape"/>
<feGaussianBlur stdDeviation="0.23504" result="effect1_foregroundBlur_220_1097"/>
</filter>
<radialGradient id="paint0_radial_220_1097" cx="0" cy="0" r="1" gradientTransform="matrix(-2.06328 17.4694 24.5896 2.80236 15.8914 -1.78622)" gradientUnits="userSpaceOnUse">
<stop offset="0.366013" stop-color="#FF4E3A"/>
<stop offset="0.457516" stop-color="#FF8A1B"/>
<stop offset="0.540305" stop-color="#FFA312"/>
<stop offset="0.615636" stop-color="#FFB60C"/>
<stop offset="0.771242" stop-color="#FFCD0A"/>
<stop offset="0.860566" stop-color="#FECF0A"/>
<stop offset="0.915033" stop-color="#FECF08"/>
<stop offset="1" stop-color="#FDCD01"/>
</radialGradient>
</defs>
</svg>
