<svg width="19" height="18" viewBox="0 0 19 18" fill="none" xmlns="http://www.w3.org/2000/svg">
<g filter="url(#filter0_f_220_1095)">
<path d="M14.1083 0.959383L10.8248 3.22253C10.6807 4.11004 10.357 4.98311 9.88319 5.77922C9.34036 6.69133 8.66932 7.38577 7.98147 7.91459C5.9253 9.49539 3.52948 9.82087 1.86162 9.82221C0.137726 12.768 -0.164506 14.2435 1.98287 16.621C4.64002 16.6191 6.9957 16.1378 9.07355 15.2367C10.5756 14.5852 11.9063 13.7355 13.1111 12.6436C14.7032 11.2007 15.9502 9.41592 16.8012 7.36259C17.6522 5.30925 18.1073 2.98738 18.1073 0.469971L14.1083 0.959383Z" fill="url(#paint0_radial_220_1095)"/>
</g>
<defs>
<filter id="filter0_f_220_1095" x="-0.00035277" y="-0.000108629" width="18.5779" height="17.0913" filterUnits="userSpaceOnUse" color-interpolation-filters="sRGB">
<feFlood flood-opacity="0" result="BackgroundImageFix"/>
<feBlend mode="normal" in="SourceGraphic" in2="BackgroundImageFix" result="shape"/>
<feGaussianBlur stdDeviation="0.23504" result="effect1_foregroundBlur_220_1095"/>
</filter>
<radialGradient id="paint0_radial_220_1095" cx="0" cy="0" r="1" gradientTransform="matrix(-29.1557 -37.3861 -14.0487 10.5717 2.22188 14.5097)" gradientUnits="userSpaceOnUse">
<stop offset="0.131546" stop-color="#0CBA65"/>
<stop offset="0.209784" stop-color="#0BB86D"/>
<stop offset="0.297297" stop-color="#09B479"/>
<stop offset="0.396257" stop-color="#08AD93"/>
<stop offset="0.477124" stop-color="#0AA6A9"/>
<stop offset="0.568425" stop-color="#0D9CC6"/>
<stop offset="0.667385" stop-color="#1893DD"/>
<stop offset="0.768727" stop-color="#258BF1"/>
<stop offset="0.858506" stop-color="#3086FF"/>
</radialGradient>
</defs>
</svg>
