<svg width="13" height="10" viewBox="0 0 13 10" fill="none" xmlns="http://www.w3.org/2000/svg">
<g filter="url(#filter0_f_220_1099)">
<path d="M4.77463 0.49778C1.32686 1.74658 0.787093 1.79137 0.469727 3.93511C1.0762 4.52889 1.72781 5.07814 2.42024 5.57613C4.27826 6.91241 7.85227 8.69208 12.4231 8.69208C12.4285 8.69208 12.4336 8.69161 12.439 8.69161V1.74926C12.4355 1.74927 12.4316 1.74949 12.4281 1.74949C10.7165 1.74949 9.34871 1.29844 7.94634 0.514072C7.60057 0.320684 6.97326 0.839985 6.65437 0.607835C6.21456 0.287647 5.1561 0.88371 4.77463 0.49778Z" fill="url(#paint0_radial_220_1099)"/>
</g>
<defs>
<filter id="filter0_f_220_1099" x="-0.00035277" y="-0.000108629" width="12.9099" height="9.16233" filterUnits="userSpaceOnUse" color-interpolation-filters="sRGB">
<feFlood flood-opacity="0" result="BackgroundImageFix"/>
<feBlend mode="normal" in="SourceGraphic" in2="BackgroundImageFix" result="shape"/>
<feGaussianBlur stdDeviation="0.23504" result="effect1_foregroundBlur_220_1099"/>
</filter>
<radialGradient id="paint0_radial_220_1099" cx="0" cy="0" r="1" gradientTransform="matrix(-16.0768 -8.74672 12.083 -21.4301 16.9557 10.7001)" gradientUnits="userSpaceOnUse">
<stop offset="0.231273" stop-color="#0FBC5F"/>
<stop offset="0.311547" stop-color="#0FBC5F"/>
<stop offset="0.366013" stop-color="#0FBC5E"/>
<stop offset="0.457516" stop-color="#0FBC5D"/>
<stop offset="0.540305" stop-color="#12BC58"/>
<stop offset="0.699346" stop-color="#28BF3C"/>
<stop offset="0.771242" stop-color="#38C02B"/>
<stop offset="0.860566" stop-color="#52C218"/>
<stop offset="0.915033" stop-color="#67C30F"/>
<stop offset="1" stop-color="#86C504"/>
</radialGradient>
</defs>
</svg>
