<svg width="14" height="14" viewBox="0 0 14 14" fill="none" xmlns="http://www.w3.org/2000/svg">
<path d="M2.8125 0C2.06658 0 1.35121 0.296316 0.823762 0.823762C0.296316 1.35121 0 2.06658 0 2.8125V10.6875C0 11.4334 0.296316 12.1488 0.823762 12.6762C1.35121 13.2037 2.06658 13.5 2.8125 13.5H10.6875C11.4334 13.5 12.1488 13.2037 12.6762 12.6762C13.2037 12.1488 13.5 11.4334 13.5 10.6875V2.8125C13.5 2.06658 13.2037 1.35121 12.6762 0.823762C12.1488 0.296316 11.4334 0 10.6875 0H2.8125ZM9.96075 5.46075L7.992 7.4295L6.02325 9.39825C5.971 9.45063 5.90893 9.49219 5.84059 9.52055C5.77225 9.54891 5.69899 9.56351 5.625 9.56351C5.55101 9.56351 5.47775 9.54891 5.40941 9.52055C5.34107 9.49219 5.279 9.45063 5.22675 9.39825L3.53925 7.71075C3.48695 7.65845 3.44546 7.59636 3.41716 7.52803C3.38886 7.4597 3.37429 7.38646 3.37429 7.3125C3.37429 7.23854 3.38886 7.1653 3.41716 7.09697C3.44546 7.02864 3.48695 6.96655 3.53925 6.91425C3.64487 6.80863 3.78813 6.74929 3.9375 6.74929C4.01146 6.74929 4.0847 6.76386 4.15303 6.79216C4.22136 6.82047 4.28345 6.86195 4.33575 6.91425L5.625 8.20463L9.16425 4.66425C9.26987 4.55863 9.41313 4.49929 9.5625 4.49929C9.71187 4.49929 9.85513 4.55863 9.96075 4.66425C10.0664 4.76987 10.1257 4.91313 10.1257 5.0625C10.1257 5.21187 10.0664 5.35513 9.96075 5.46075Z" fill="#017AB5"/>
</svg>
